<svg xmlns="http://www.w3.org/2000/svg" xmlns:xlink="http://www.w3.org/1999/xlink" id="visual" viewBox="0 0 900 450" width="900" height="450"><rect x="0" y="0" width="900" height="450" fill="#E8E9EB"></rect><path d="M0 289L21.5 301.3C43 313.7 86 338.3 128.8 338.2C171.7 338 214.3 313 257.2 300.3C300 287.7 343 287.3 385.8 289.5C428.7 291.7 471.3 296.3 514.2 311.2C557 326 600 351 642.8 353.5C685.7 356 728.3 336 771.2 323.8C814 311.7 857 307.3 878.5 305.2L900 303L900 451L878.5 451C857 451 814 451 771.2 451C728.3 451 685.7 451 642.8 451C600 451 557 451 514.2 451C471.3 451 428.7 451 385.8 451C343 451 300 451 257.2 451C214.3 451 171.7 451 128.8 451C86 451 43 451 21.5 451L0 451Z" fill="#e0e1e4" stroke-linecap="round" stroke-linejoin="miter"></path></svg>